#!OML:ASF G:\ViconDB\ViconDB\414\test\team2\shane.ASF
:FULLY-SPECIFIED
:DEGREES
229
root 0.37882 16.7203 18.492 -8.75199 -5.90503 -7.03909
lowerback 8.89109 4.06813 7.78338
upperback 2.55696 6.12584 1.41549
thorax -1.63966 3.05788 -3.45581
lowerneck -15.2638 -5.90696 -6.65023
upperneck 21.3755 -8.78209 9.07572
head 10.0304 -3.61512 3.10795
rclavicle 2.64974e-014 1.31198e-014
rhumerus -17.6905 17.6638 -95.9676
rradius 83.4583
rwrist 26.9739
rhand -43.155 -20.3517
rfingers 7.12502
rthumb -16.0076 -49.7103
lclavicle 2.64974e-014 1.31198e-014
lhumerus -54.0615 -9.78921 67.8083
lradius 12.891
lwrist -26.9884
lhand -37.7737 8.88394
lfingers 7.12502
lthumb -10.8209 38.5852
rfemur 24.4389 -15.7987 18.7075
rtibia 7.01078
rfoot -19.9146 14.0735
rtoes -6.34742
lfemur -18.1841 14.3925 -3.95798
ltibia 37.9298
lfoot -27.3669 -9.68899
ltoes -11.4484
230
root 0.39398 16.7002 18.704 -8.57944 -6.31551 -7.26209
lowerback 8.92076 4.39723 8.27417
upperback 2.46919 6.6125 1.39193
thorax -1.63237 3.29821 -3.78892
lowerneck -15.106 -6.13464 -6.48025
upperneck 21.0931 -9.11258 9.01131
head 9.91865 -3.77103 3.009
rclavicle -3.34533e-014 8.34896e-015
rhumerus -16.5184 18.0996 -95.6733
rradius 86.0323
rwrist 27.301
rhand -42.8884 -19.8005
rfingers 7.12502
rthumb -15.7509 -49.1796
lclavicle -3.34533e-014 8.34896e-015
lhumerus -55.1636 -10.357 66.7329
lradius 13.3282
lwrist -25.9356
lhand -37.441 8.62104
lfingers 7.12502
lthumb -10.5001 38.3388
rfemur 28.1403 -14.9039 18.9962
rtibia 6.04305e-014
rfoot -16.7802 13.4126
rtoes -8.05054
lfemur -19.006 14.3636 -4.08025
ltibia 36.5525
lfoot -27.8472 -9.71892
ltoes -11.0492
231
root 0.402029 16.6735 18.9144 -8.62103 -6.15461 -7.63914
lowerback 9.44269 5.74034 13.6221
upperback 2.65154 8.88327 -0.842381
thorax -0.232396 4.57172 -9.15803
lowerneck -15.1033 -8.03898 -6.93026
upperneck 20.1797 -12.2684 11.6967
head 10.1113 -4.99168 3.54336
rclavicle 9.70566e-014 1.03368e-014
rhumerus -14.2555 12.8124 -95.1809
rradius 88.6502
rwrist 28.3583
rhand -43.2926 -20.5694
rfingers 7.12502
rthumb -16.1401 -49.9174
lclavicle 9.70566e-014 1.03368e-014
lhumerus -54.0328 -20.0571 68.7342
lradius 15.0112
lwrist -19.258
lhand -37.007 8.90117
lfingers 7.12502
lthumb -10.0813 38.6397
rfemur 28.9943 -14.5867 19.2541
rtibia -6.04305e-014
rfoot -17.2514 13.034
rtoes -8.16096
lfemur -19.7876 14.2762 -4.0861
ltibia 35.6085
lfoot -28.4937 -10.0928
ltoes -10.7861
232
root 0.403081 16.6389 19.1205 -8.774 -6.0172 -7.76167
lowerback 8.84322 4.51539 8.689
upperback 2.83252 6.77592 1.44592
thorax -1.14548 3.41232 -3.93802
lowerneck -15.5787 -6.37345 -6.57489
upperneck 20.9007 -9.495 9.45587
head 10.005 -3.89496 3.1124
rclavicle -3.16751e-014 -1.19271e-015
rhumerus -13.3434 19.7189 -94.6112
rradius 90.4571
rwrist 27.7805
rhand -43.1367 -19.7203
rfingers 7.12502
rthumb -15.99 -49.0804
lclavicle -3.16751e-014 -1.19271e-015
lhumerus -56.8762 -11.2343 64.6922
lradius 14.336
lwrist -23.1442
lhand -37.399 8.18914
lfingers 7.12502
lthumb -10.4595 37.9089
rfemur 29.9431 -14.2146 19.2692
rtibia -6.36111e-015
rfoot -17.7248 12.4188
rtoes -9.53375
lfemur -20.4168 14.1777 -4.33578
ltibia 34.9887
lfoot -28.8555 -10.2874
ltoes -11.4207
233
root 0.413616 16.6097 19.3232 -8.8232 -5.97298 -7.81319
lowerback 9.12288 4.61604 8.80519
upperback 2.83399 6.94646 1.34997
thorax -1.24939 3.49364 -4.1384
lowerneck -16.067 -6.38204 -6.18947
upperneck 21.2582 -9.54603 9.16539
head 10.1937 -3.89531 2.93015
rclavicle -4.17448e-014 -1.74931e-014
rhumerus -12.0058 20.3872 -94.0715
rradius 92.4115
rwrist 28.3508
rhand -43.33 -20.2614
rfingers 7.12502
rthumb -16.1761 -49.6065
lclavicle -4.17448e-014 -1.74931e-014
lhumerus -57.4612 -11.2405 63.1158
lradius 14.6002
lwrist -22.4095
lhand -37.1603 7.82684
lfingers 7.12502
lthumb -10.2293 37.5581
rfemur 30.7258 -13.7302 19.2423
rtibia 6.36111e-015
rfoot -18.1344 11.9012
rtoes -10.2973
lfemur -21.0205 14.335 -4.67242
ltibia 34.6823
lfoot -29.2215 -10.6274
ltoes -11.1889
234
root 0.428896 16.5673 19.5288 -8.93494 -6.08991 -7.77422
lowerback 9.468 4.75437 8.75628
upperback 2.82223 7.16092 1.29373
thorax -1.42204 3.5922 -4.22069
lowerneck -16.3488 -6.42996 -5.83491
upperneck 21.4228 -9.64656 8.90824
head 10.282 -3.9284 2.75976
rclavicle -2.19968e-014 -2.5842e-014
rhumerus -10.8714 20.8083 -93.4535
rradius 94.2898
rwrist 28.4247
rhand -43.3047 -19.7301
rfingers 7.12502
rthumb -16.1518 -49.0771
lclavicle -2.19968e-014 -2.5842e-014
lhumerus -58.0803 -11.0859 61.6124
lradius 14.8696
lwrist -21.8138
lhand -37.2433 8.02617
lfingers 7.12502
lthumb -10.3093 37.7535
rfemur 31.5942 -13.0721 19.1496
rtibia -1.27222e-014
rfoot -18.636 11.2233
rtoes -11.3305
lfemur -21.3666 14.6581 -5.0951
ltibia 34.5914
lfoot -29.3541 -10.6447
ltoes -11.2988
235
root 0.440863 16.5151 19.7407 -9.11713 -6.06506 -7.59704
lowerback 9.70367 4.83113 8.56401
upperback 2.8668 7.26202 1.12327
thorax -1.49317 3.64147 -4.32171
lowerneck -16.5671 -6.46381 -5.66129
upperneck 21.5426 -9.75321 8.94121
head 10.3692 -3.94928 2.72222
rclavicle 6.48038e-014 -2.38542e-014
rhumerus -9.86023 21.0118 -93.0644
rradius 95.789
rwrist 29.2566
rhand -43.4687 -19.7959
rfingers 7.12502
rthumb -16.3097 -49.13
lclavicle 6.48038e-014 -2.38542e-014
lhumerus -58.3903 -10.8014 59.8479
lradius 14.8487
lwrist -21.527
lhand -37.2273 8.19961
lfingers 7.12502
lthumb -10.294 37.9277
rfemur 32.559 -12.5088 18.8531
rtibia -1.65389e-013
rfoot -19.0045 10.6333
rtoes -12.555
lfemur -21.5795 15.2699 -5.70507
ltibia 34.8106
lfoot -29.2412 -11.0444
ltoes -11.0436
236
root 0.458643 16.4756 19.9447 -9.15859 -6.2478 -7.57032
lowerback 10.0062 4.95603 8.62118
upperback 2.8323 7.4609 0.954883
thorax -1.63821 3.73381 -4.57555
lowerneck -17.0432 -6.46279 -5.07923
upperneck 21.84 -9.85096 8.65629
head 10.5285 -3.95546 2.50039
rclavicle 1.08462e-013 1.39149e-014
rhumerus -9.00005 21.0902 -92.6699
rradius 97.0505
rwrist 29.8938
rhand -43.5685 -19.7358
rfingers 7.12502
rthumb -16.4058 -49.062
lclavicle 1.08462e-013 1.39149e-014
lhumerus -58.622 -10.6486 58.275
lradius 14.7752
lwrist -21.7974
lhand -37.2853 8.73806
lfingers 7.12502
lthumb -10.3499 38.4634
rfemur 33.3144 -11.7905 18.8218
rtibia 2.8625e-014
rfoot -19.1881 10.0993
rtoes -13.5033
lfemur -21.6968 15.3996 -5.99706
ltibia 35.2865
lfoot -28.882 -11.1428
ltoes -10.9408
237
root 0.484564 16.4246 20.1606 -9.30664 -6.51607 -7.43005
lowerback 10.2496 5.15425 8.77496
upperback 2.85599 7.75542 0.720644
thorax -1.65136 3.88262 -4.94694
lowerneck -17.3635 -6.55755 -4.7751
upperneck 22.061 -10.0852 8.66074
head 10.6737 -4.01956 2.40874
rclavicle 6.96989e-015 2.06736e-014
rhumerus -8.36732 20.7619 -92.3424
rradius 98.1465
rwrist 30.5946
rhand -43.6406 -19.8625
rfingers 7.12502
rthumb -16.4752 -49.1829
lclavicle 6.96989e-015 2.06736e-014
lhumerus -58.7772 -11.0601 57.3833
lradius 14.6677
lwrist -21.1867
lhand -37.4699 9.06545
lfingers 7.12502
lthumb -10.528 38.7818
rfemur 34.2189 -10.9437 18.6393
rtibia 9.54166e-014
rfoot -19.1899 9.52662
rtoes -14.6116
lfemur -21.5331 15.9376 -6.42312
ltibia 36.0261
lfoot -28.4192 -11.6795
ltoes -11.1568
